<?xml version="1.0" standalone="no"?>
<!DOCTYPE svg PUBLIC "-//W3C//DTD SVG 20010904//EN"
 "http://www.w3.org/TR/2001/REC-SVG-20010904/DTD/svg10.dtd">
<svg version="1.0" xmlns="http://www.w3.org/2000/svg"
 width="229.000000pt" height="321.000000pt" viewBox="0 0 229.000000 321.000000"
 preserveAspectRatio="xMidYMid meet">

<g transform="translate(0.000000,321.000000) scale(0.100000,-0.100000)"
fill="#000000" stroke="none">
<path d="M895 3113 c-209 -18 -390 -105 -545 -262 -142 -143 -224 -306 -249
-494 -7 -51 -11 -405 -11 -1003 l0 -924 885 0 886 0 -4 977 c-3 962 -3 979
-24 1051 -44 151 -123 288 -224 391 -149 150 -320 235 -529 260 -83 11 -104
11 -185 4z"/>
<path d="M1920 2489 c0 -2 7 -40 15 -84 12 -66 14 -252 15 -1072 l0 -993 -840
0 -840 0 0 -40 0 -40 880 0 880 0 0 939 c0 1044 0 1039 -66 1200 -32 77 -44
102 -44 90z"/>
<path d="M2090 2319 c0 -2 7 -40 15 -84 12 -66 14 -252 15 -1072 l0 -993 -840
0 -840 0 0 -40 0 -40 880 0 880 0 0 939 c0 1044 0 1039 -66 1200 -32 77 -44
102 -44 90z"/>
</g>
</svg>
